<?xml version="1.0" encoding="UTF-8" standalone="no"?>
<!DOCTYPE svg PUBLIC "-//W3C//DTD SVG 1.1//EN"
 "http://www.w3.org/Graphics/SVG/1.1/DTD/svg11.dtd">
<!-- Generated by graphviz version 2.38.0 (20140413.2041)
 -->
<!-- Title: G Pages: 1 -->
<svg width="282pt" height="362pt"
 viewBox="0.00 0.00 282.00 362.40" xmlns="http://www.w3.org/2000/svg" xmlns:xlink="http://www.w3.org/1999/xlink">
<g id="graph0" class="graph" transform="scale(1 1) rotate(0) translate(4 358.4)">
<title>G</title>
<polygon fill="white" stroke="none" points="-4,4 -4,-358.4 278,-358.4 278,4 -4,4"/>
<g id="clust1" class="cluster"><title>cluster_0</title>
<polygon fill="none" stroke="black" points="30,-64 30,-140.8 266,-140.8 266,-64 30,-64"/>
<text text-anchor="middle" x="148" y="-124.2" font-family="Times,serif" font-size="14.00">MMAL Client</text>
</g>
<g id="clust2" class="cluster"><title>cluster_1</title>
<polygon fill="none" stroke="black" points="8,-233.6 8,-310.4 244,-310.4 244,-233.6 8,-233.6"/>
<text text-anchor="middle" x="126" y="-293.8" font-family="Times,serif" font-size="14.00">MMAL Server</text>
</g>
<g id="clust3" class="cluster"><title>cluster_2</title>
<polygon fill="none" stroke="black" points="90,-148.8 90,-225.6 185,-225.6 185,-148.8 90,-148.8"/>
<text text-anchor="middle" x="137.5" y="-209" font-family="Times,serif" font-size="14.00">gRPC/HTTP2</text>
</g>
<!-- py_client -->
<g id="node1" class="node"><title>py_client</title>
<ellipse fill="lightgrey" stroke="black" cx="220" cy="-90" rx="37.7256" ry="18"/>
<text text-anchor="middle" x="220" y="-85.8" font-family="Times,serif" font-size="14.00">python</text>
</g>
<!-- pandas -->
<g id="node8" class="node"><title>pandas</title>
<ellipse fill="none" stroke="black" cx="220" cy="-18" rx="37.7025" ry="18"/>
<text text-anchor="middle" x="220" y="-13.8" font-family="Times,serif" font-size="14.00">pandas</text>
</g>
<!-- py_client&#45;&gt;pandas -->
<g id="edge7" class="edge"><title>py_client&#45;&gt;pandas</title>
<path fill="none" stroke="black" d="M220,-71.6966C220,-63.9827 220,-54.7125 220,-46.1124"/>
<polygon fill="black" stroke="black" points="223.5,-46.1043 220,-36.1043 216.5,-46.1044 223.5,-46.1043"/>
</g>
<!-- java_client -->
<g id="node2" class="node"><title>java_client</title>
<ellipse fill="lightgrey" stroke="black" cx="137" cy="-90" rx="27.2447" ry="18"/>
<text text-anchor="middle" x="137" y="-85.8" font-family="Times,serif" font-size="14.00">java</text>
</g>
<!-- go_client -->
<g id="node3" class="node"><title>go_client</title>
<ellipse fill="lightgrey" stroke="black" cx="65" cy="-90" rx="27" ry="18"/>
<text text-anchor="middle" x="65" y="-85.8" font-family="Times,serif" font-size="14.00">go</text>
</g>
<!-- py_server -->
<g id="node4" class="node"><title>py_server</title>
<ellipse fill="lightgrey" stroke="black" cx="54" cy="-259.6" rx="37.7256" ry="18"/>
<text text-anchor="middle" x="54" y="-255.4" font-family="Times,serif" font-size="14.00">python</text>
</g>
<!-- protocol -->
<g id="node7" class="node"><title>protocol</title>
<polygon fill="lightgrey" stroke="black" points="169.212,-192.8 104.788,-192.8 104.788,-156.8 169.212,-156.8 169.212,-192.8"/>
<text text-anchor="middle" x="137" y="-170.6" font-family="Times,serif" font-size="14.00">protobuf</text>
</g>
<!-- py_server&#45;&gt;protocol -->
<g id="edge1" class="edge"><title>py_server&#45;&gt;protocol</title>
<path fill="none" stroke="red" d="M76.0455,-235.195C87.1764,-224.091 100.586,-210.714 111.925,-199.402"/>
<path fill="none" stroke="blue" d="M77.458,-236.611C88.5889,-225.507 101.998,-212.13 113.338,-200.818"/>
<polygon fill="blue" stroke="blue" points="74.2194,-233.486 69.6117,-243.026 79.1632,-238.441 74.2194,-233.486"/>
<polygon fill="red" stroke="red" points="115.132,-202.559 119.739,-193.019 110.188,-197.604 115.132,-202.559"/>
</g>
<!-- java_server -->
<g id="node5" class="node"><title>java_server</title>
<ellipse fill="lightgrey" stroke="black" cx="209" cy="-259.6" rx="27.2447" ry="18"/>
<text text-anchor="middle" x="209" y="-255.4" font-family="Times,serif" font-size="14.00">java</text>
</g>
<!-- java_server&#45;&gt;protocol -->
<g id="edge2" class="edge"><title>java_server&#45;&gt;protocol</title>
<path fill="none" stroke="red" d="M188.149,-236.145C178.693,-225.271 167.406,-212.291 157.776,-201.216"/>
<path fill="none" stroke="blue" d="M189.658,-234.833C180.203,-223.959 168.915,-210.979 159.285,-199.904"/>
<polygon fill="blue" stroke="blue" points="186.591,-238.164 195.794,-243.413 191.873,-233.57 186.591,-238.164"/>
<polygon fill="red" stroke="red" points="161.064,-198.14 151.861,-192.89 155.782,-202.733 161.064,-198.14"/>
</g>
<!-- go_server -->
<g id="node6" class="node"><title>go_server</title>
<ellipse fill="lightgrey" stroke="black" cx="137" cy="-259.6" rx="27" ry="18"/>
<text text-anchor="middle" x="137" y="-255.4" font-family="Times,serif" font-size="14.00">go</text>
</g>
<!-- go_server&#45;&gt;protocol -->
<g id="edge3" class="edge"><title>go_server&#45;&gt;protocol</title>
<path fill="none" stroke="red" d="M136,-231.397C136,-222.288 136,-212.136 136,-203.026"/>
<path fill="none" stroke="blue" d="M138,-231.397C138,-222.288 138,-212.136 138,-203.026"/>
<polygon fill="blue" stroke="blue" points="133.5,-231.444 137,-241.444 140.5,-231.444 133.5,-231.444"/>
<polygon fill="red" stroke="red" points="140.5,-202.934 137,-192.934 133.5,-202.934 140.5,-202.934"/>
</g>
<!-- protocol&#45;&gt;py_client -->
<g id="edge4" class="edge"><title>protocol&#45;&gt;py_client</title>
<path fill="none" stroke="red" d="M162.963,-149.046C166.141,-146.064 169.32,-143.023 172.298,-140.088 180.835,-131.675 189.96,-122.139 197.864,-113.693"/>
<path fill="none" stroke="blue" d="M164.332,-150.504C167.523,-147.509 170.702,-144.469 173.702,-141.512 182.28,-133.058 191.405,-123.522 199.325,-115.06"/>
<polygon fill="blue" stroke="blue" points="161.255,-147.221 156.297,-156.584 166.012,-152.356 161.255,-147.221"/>
<polygon fill="red" stroke="red" points="201.225,-116.688 205.468,-106.98 196.097,-111.923 201.225,-116.688"/>
</g>
<!-- protocol&#45;&gt;java_client -->
<g id="edge5" class="edge"><title>protocol&#45;&gt;java_client</title>
<path fill="none" stroke="red" d="M136,-146.597C136,-137.488 136,-127.336 136,-118.226"/>
<path fill="none" stroke="blue" d="M138,-146.597C138,-137.488 138,-127.336 138,-118.226"/>
<polygon fill="blue" stroke="blue" points="133.5,-146.644 137,-156.644 140.5,-146.644 133.5,-146.644"/>
<polygon fill="red" stroke="red" points="140.5,-118.134 137,-108.134 133.5,-118.134 140.5,-118.134"/>
</g>
<!-- protocol&#45;&gt;go_client -->
<g id="edge6" class="edge"><title>protocol&#45;&gt;go_client</title>
<path fill="none" stroke="red" d="M108.797,-150.398C105.824,-147.471 102.932,-144.473 100.253,-141.465 93.147,-133.478 86.1404,-124.194 80.1909,-115.779"/>
<path fill="none" stroke="blue" d="M110.2,-148.973C107.263,-146.082 104.371,-143.084 101.747,-140.135 94.7434,-132.273 87.7368,-122.989 81.824,-114.624"/>
<polygon fill="blue" stroke="blue" points="107.207,-152.336 116.873,-156.675 112.023,-147.256 107.207,-152.336"/>
<polygon fill="red" stroke="red" points="83.8208,-113.116 75.2589,-106.876 78.0604,-117.093 83.8208,-113.116"/>
</g>
<!-- sqlite -->
<g id="node9" class="node"><title>sqlite</title>
<polygon fill="none" stroke="black" points="236,-354.4 182,-354.4 182,-318.4 236,-318.4 236,-354.4"/>
<text text-anchor="middle" x="209" y="-332.2" font-family="Times,serif" font-size="14.00">sqlite</text>
</g>
<!-- sqlite&#45;&gt;py_server -->
<g id="edge8" class="edge"><title>sqlite&#45;&gt;py_server</title>
<path fill="none" stroke="#eeee00" d="M171.542,-319.845C140.367,-312.849 127.899,-324.214 100.554,-311.295 88.619,-305.292 78.3095,-295.3 70.2752,-285.711"/>
<path fill="none" stroke="green" d="M171.954,-317.888C139.02,-311.371 126.552,-322.736 101.446,-309.505 90.011,-303.856 79.7015,-293.863 71.8088,-284.427"/>
<polygon fill="green" stroke="green" points="171.291,-322.362 181.845,-321.439 173.018,-315.579 171.291,-322.362"/>
<polygon fill="#eeee00" stroke="#eeee00" points="73.5985,-282.657 64.6721,-276.95 68.0912,-286.978 73.5985,-282.657"/>
</g>
<!-- sqlite&#45;&gt;java_server -->
<g id="edge11" class="edge"><title>sqlite&#45;&gt;java_server</title>
<path fill="none" stroke="navy" d="M208,-308.051C208,-301.584 208,-294.685 208,-288.207"/>
<path fill="none" stroke="orangered" d="M210,-308.051C210,-301.584 210,-294.685 210,-288.207"/>
<polygon fill="orangered" stroke="orangered" points="205.5,-308.051 209,-318.051 212.5,-308.051 205.5,-308.051"/>
<polygon fill="navy" stroke="navy" points="212.5,-287.855 209,-277.855 205.5,-287.855 212.5,-287.855"/>
</g>
<!-- sqlite&#45;&gt;go_server -->
<g id="edge14" class="edge"><title>sqlite&#45;&gt;go_server</title>
<path fill="none" stroke="#1874cd" d="M173.664,-312.421C173.199,-311.986 172.749,-311.555 172.3,-311.114 164.523,-303.47 157.301,-294.133 151.342,-285.548"/>
<path fill="none" stroke="indigo" d="M175.031,-310.962C174.583,-310.542 174.133,-310.111 173.7,-309.686 166.105,-302.246 158.883,-292.91 152.985,-284.408"/>
<polygon fill="indigo" stroke="indigo" points="172.336,-314.574 182.233,-318.355 176.854,-309.227 172.336,-314.574"/>
<polygon fill="#1874cd" stroke="#1874cd" points="154.949,-282.847 146.488,-276.47 149.126,-286.731 154.949,-282.847"/>
</g>
<!-- mysql -->
<g id="node10" class="node"><title>mysql</title>
<polygon fill="none" stroke="black" points="84,-354.4 30,-354.4 30,-318.4 84,-318.4 84,-354.4"/>
<text text-anchor="middle" x="57" y="-332.2" font-family="Times,serif" font-size="14.00">mysql</text>
</g>
<!-- mysql&#45;&gt;py_server -->
<g id="edge9" class="edge"><title>mysql&#45;&gt;py_server</title>
<path fill="none" stroke="#eeee00" d="M54.9039,-308.091C54.6446,-301.624 54.3678,-294.725 54.108,-288.247"/>
<path fill="none" stroke="green" d="M56.9023,-308.011C56.643,-301.544 56.3662,-294.645 56.1064,-288.167"/>
<polygon fill="green" stroke="green" points="52.4062,-308.2 56.3042,-318.051 59.4005,-307.919 52.4062,-308.2"/>
<polygon fill="#eeee00" stroke="#eeee00" points="58.5901,-287.706 54.692,-277.855 51.5957,-287.987 58.5901,-287.706"/>
</g>
<!-- mysql&#45;&gt;java_server -->
<g id="edge12" class="edge"><title>mysql&#45;&gt;java_server</title>
<path fill="none" stroke="navy" d="M94.0482,-317.942C130.655,-311.083 145.287,-326.064 172.501,-309.533 181.939,-304.173 189.74,-294.791 195.491,-285.769"/>
<path fill="none" stroke="orangered" d="M94.4405,-319.904C129.224,-312.481 143.856,-327.462 173.499,-311.267 183.477,-305.451 191.278,-296.07 197.177,-286.845"/>
<polygon fill="orangered" stroke="orangered" points="93.021,-315.619 84.1456,-321.405 94.6921,-322.417 93.021,-315.619"/>
<polygon fill="navy" stroke="navy" points="199.5,-287.824 201.497,-277.419 193.447,-284.308 199.5,-287.824"/>
</g>
<!-- mysql&#45;&gt;go_server -->
<g id="edge15" class="edge"><title>mysql&#45;&gt;go_server</title>
<path fill="none" stroke="#1874cd" d="M92.3949,-315.919C95.1817,-313.957 97.8992,-311.84 100.333,-309.655 108.233,-302.594 115.525,-293.332 121.378,-284.802"/>
<path fill="none" stroke="indigo" d="M93.5469,-317.554C96.411,-315.535 99.1286,-313.417 101.667,-311.145 109.804,-303.831 117.096,-294.57 123.027,-285.934"/>
<polygon fill="indigo" stroke="indigo" points="90.8152,-313.962 84.2942,-322.312 94.5992,-319.851 90.8152,-313.962"/>
<polygon fill="#1874cd" stroke="#1874cd" points="125.27,-287.072 127.807,-276.785 119.409,-283.244 125.27,-287.072"/>
</g>
<!-- postgres -->
<g id="node11" class="node"><title>postgres</title>
<polygon fill="none" stroke="black" points="164.156,-354.4 101.844,-354.4 101.844,-318.4 164.156,-318.4 164.156,-354.4"/>
<text text-anchor="middle" x="133" y="-332.2" font-family="Times,serif" font-size="14.00">postgres</text>
</g>
<!-- postgres&#45;&gt;py_server -->
<g id="edge10" class="edge"><title>postgres&#45;&gt;py_server</title>
<path fill="none" stroke="#eeee00" d="M101.721,-312.395C101.249,-311.975 100.787,-311.559 100.327,-311.139 91.2651,-302.883 81.9269,-293.255 73.9572,-284.648"/>
<path fill="none" stroke="green" d="M103.051,-310.901C102.587,-310.488 102.125,-310.072 101.673,-309.661 92.7008,-301.491 83.3626,-291.863 75.4247,-283.289"/>
<polygon fill="green" stroke="green" points="100.378,-314.534 110.268,-318.333 104.906,-309.196 100.378,-314.534"/>
<polygon fill="#eeee00" stroke="#eeee00" points="77.1498,-281.471 67.8245,-276.442 71.9784,-286.188 77.1498,-281.471"/>
</g>
<!-- postgres&#45;&gt;java_server -->
<g id="edge13" class="edge"><title>postgres&#45;&gt;java_server</title>
<path fill="none" stroke="navy" d="M170.621,-311.207C171.194,-310.703 171.768,-310.183 172.317,-309.669 180.078,-302.431 187.338,-293.134 193.212,-284.617"/>
<path fill="none" stroke="orangered" d="M171.942,-312.709C172.537,-312.185 173.111,-311.665 173.683,-311.131 181.654,-303.662 188.914,-294.365 194.858,-285.753"/>
<polygon fill="orangered" stroke="orangered" points="168.896,-309.382 163.208,-318.32 173.229,-314.88 168.896,-309.382"/>
<polygon fill="navy" stroke="navy" points="197.088,-286.912 199.672,-276.637 191.245,-283.059 197.088,-286.912"/>
</g>
<!-- postgres&#45;&gt;go_server -->
<g id="edge16" class="edge"><title>postgres&#45;&gt;go_server</title>
<path fill="none" stroke="#1874cd" d="M133.468,-307.922C133.816,-301.406 134.188,-294.454 134.537,-287.94"/>
<path fill="none" stroke="indigo" d="M135.465,-308.029C135.814,-301.513 136.185,-294.561 136.534,-288.047"/>
<polygon fill="indigo" stroke="indigo" points="130.967,-307.879 133.928,-318.051 137.957,-308.253 130.967,-307.879"/>
<polygon fill="#1874cd" stroke="#1874cd" points="139.052,-287.769 136.091,-277.597 132.062,-287.395 139.052,-287.769"/>
</g>
</g>
</svg>
